<svg width="337" height="337" viewBox="0 0 337 337" fill="none" xmlns="http://www.w3.org/2000/svg">
<path d="M168.5 28.0833C90.99 28.0833 28.0834 90.99 28.0834 168.5C28.0834 246.01 90.99 308.917 168.5 308.917C246.01 308.917 308.917 246.01 308.917 168.5C308.917 90.99 246.01 28.0833 168.5 28.0833ZM218.067 182.963L175.942 225.088C173.836 227.194 171.168 228.177 168.5 228.177C165.832 228.177 163.164 227.194 161.058 225.088L118.933 182.963C114.861 178.891 114.861 172.151 118.933 168.079C123.005 164.007 129.745 164.007 133.817 168.079L157.969 192.23V119.354C157.969 113.597 162.743 108.823 168.5 108.823C174.257 108.823 179.031 113.597 179.031 119.354V192.23L203.183 168.079C207.255 164.007 213.995 164.007 218.067 168.079C222.139 172.151 222.139 178.891 218.067 182.963Z" fill="white"/>
</svg>
